<?xml version="1.0" encoding="utf-8"?>
<!-- Generator: Adobe Illustrator 22.0.1, SVG Export Plug-In . SVG Version: 6.00 Build 0)  -->
<svg version="1.1"
	 id="svg4452" xmlns:cc="http://creativecommons.org/ns#" xmlns:dc="http://purl.org/dc/elements/1.1/" xmlns:rdf="http://www.w3.org/1999/02/22-rdf-syntax-ns#" xmlns:svg="http://www.w3.org/2000/svg"
	 xmlns="http://www.w3.org/2000/svg" xmlns:xlink="http://www.w3.org/1999/xlink" x="0px" y="0px" viewBox="0 0 1107.9 260.8"
	 style="enable-background:new 0 0 1107.9 260.8;" xml:space="preserve">
<style type="text/css">
	.st0{fill:#FFFFFF;}
</style>
<g>
	<g>
		<path class="st0" d="M484.5,142.3c0,1.3-0.4,2.4-1.3,3.2c-0.8,0.8-2,1.2-3.5,1.2c-1.1,0-2.1-0.3-3-0.8c-0.9-0.6-1.6-1.3-2-2.2
			c-0.5-0.9-0.7-2-0.7-3.1c0-1.4,0.3-2.6,1-3.7s1.5-1.9,2.6-2.5s2.1-0.9,3.3-0.9c0.8,0,1.4,0,1.8,0.1c0.5,0,1,0.2,1.5,0.3
			c0.2,0,0.3,0.1,0.4,0.3c0.1,0.1,0.2,0.2,0.2,0.4s-0.1,0.3-0.2,0.4s-0.3,0.2-0.4,0.2c-0.1,0-0.2,0-0.3-0.1
			c-0.4-0.1-0.7-0.2-1.2-0.3c-0.4,0-1-0.1-1.8-0.1c-0.9,0-1.8,0.3-2.7,0.8s-1.6,1.2-2.2,2.1c-0.6,0.9-0.8,1.9-0.8,3
			c0,0.9,0.2,1.7,0.5,2.5c0.4,0.8,0.9,1.4,1.6,1.9c0.7,0.5,1.5,0.7,2.5,0.7l0,0c1,0,1.8-0.3,2.5-0.9c0.7-0.6,1-1.4,1-2.3
			c0-0.8-0.2-1.5-0.6-1.9c-0.4-0.5-0.9-0.7-1.4-0.7s-0.9,0.1-1.2,0.3s-0.4,0.5-0.4,0.8c0,0.1,0,0.2,0.1,0.3c0-0.2,0.1-0.4,0.2-0.5
			c0.1-0.1,0.3-0.2,0.6-0.2s0.5,0.1,0.7,0.3s0.2,0.5,0.2,0.8s-0.1,0.6-0.4,0.8c-0.3,0.2-0.6,0.3-0.9,0.3c-0.5,0-0.9-0.2-1.2-0.5
			s-0.5-0.7-0.5-1.3c0-0.7,0.3-1.3,0.8-1.7s1.2-0.7,1.9-0.7c0.6,0,1.1,0.2,1.7,0.5c0.5,0.3,0.9,0.7,1.2,1.3
			C484.4,140.9,484.5,141.6,484.5,142.3z"/>
		<path class="st0" d="M497.9,142.3c0,1.3-0.4,2.4-1.3,3.2c-0.8,0.8-2,1.2-3.5,1.2c-1.1,0-2.1-0.3-3-0.8c-0.9-0.6-1.6-1.3-2-2.2
			c-0.5-0.9-0.7-2-0.7-3.1c0-1.4,0.3-2.6,1-3.7s1.5-1.9,2.6-2.5s2.1-0.9,3.3-0.9c0.8,0,1.4,0,1.8,0.1c0.5,0,1,0.2,1.5,0.3
			c0.2,0,0.3,0.1,0.4,0.3c0.1,0.1,0.2,0.2,0.2,0.4s-0.1,0.3-0.2,0.4s-0.3,0.2-0.4,0.2c-0.1,0-0.2,0-0.3-0.1
			c-0.4-0.1-0.7-0.2-1.2-0.3c-0.4,0-1-0.1-1.8-0.1c-0.9,0-1.8,0.3-2.7,0.8s-1.6,1.2-2.2,2.1c-0.6,0.9-0.8,1.9-0.8,3
			c0,0.9,0.2,1.7,0.5,2.5c0.4,0.8,0.9,1.4,1.6,1.9c0.7,0.5,1.5,0.7,2.5,0.7l0,0c1,0,1.8-0.3,2.5-0.9c0.7-0.6,1-1.4,1-2.3
			c0-0.8-0.2-1.5-0.6-1.9c-0.4-0.5-0.9-0.7-1.4-0.7s-0.9,0.1-1.2,0.3s-0.4,0.5-0.4,0.8c0,0.1,0,0.2,0.1,0.3c0-0.2,0.1-0.4,0.2-0.5
			c0.1-0.1,0.3-0.2,0.6-0.2s0.5,0.1,0.7,0.3s0.2,0.5,0.2,0.8s-0.1,0.6-0.4,0.8c-0.3,0.2-0.6,0.3-0.9,0.3c-0.5,0-0.9-0.2-1.2-0.5
			s-0.5-0.7-0.5-1.3c0-0.7,0.3-1.3,0.8-1.7s1.2-0.7,1.9-0.7c0.6,0,1.1,0.2,1.7,0.5c0.5,0.3,0.9,0.7,1.2,1.3
			C497.8,140.9,497.9,141.6,497.9,142.3z"/>
		<path class="st0" d="M514.9,142.3c-0.6,1.3-1.4,2.4-2.6,3.2s-2.6,1.2-4.3,1.2c-1.4,0-2.7-0.3-3.7-0.9c-1-0.6-1.8-1.3-2.3-2.2
			s-0.8-1.8-0.8-2.8c0-1.6,0.4-2.8,1.2-3.7s1.7-1.4,2.9-1.5c0.1,0,0.3,0,0.6,0c0.7,0,1.3,0.1,1.9,0.3c0.3,0.1,0.4,0.3,0.4,0.5
			c0,0,0,0.1,0,0.2c-0.1,0.3-0.3,0.4-0.5,0.4c0,0-0.3-0.1-0.6-0.2c-0.4-0.1-0.8-0.2-1.2-0.2c-1,0-1.8,0.3-2.5,1s-1,1.7-1,3
			c0,0.8,0.2,1.5,0.6,2.2c0.4,0.7,1.1,1.3,1.9,1.8c0.9,0.5,1.9,0.7,3.1,0.7c1.4,0,2.5-0.4,3.5-1.1c1-0.7,1.7-1.6,2.2-2.7
			c0.5-1.1,0.7-2.2,0.7-3.4c0-2-0.4-3.7-1.3-5.2c-0.9-1.5-2.1-2.6-3.5-3.3c-1.5-0.8-3-1.1-4.7-1.1c-1,0-2.1,0.2-3.2,0.5
			c-0.1,0-0.2,0-0.3,0c-0.2,0-0.3-0.1-0.4-0.2s-0.2-0.3-0.2-0.4c0-0.3,0.2-0.5,0.5-0.6c1.1-0.4,2.3-0.6,3.5-0.6
			c1.8,0,3.6,0.4,5.3,1.3c1.7,0.9,3,2.1,4,3.8c1,1.6,1.5,3.5,1.5,5.6C515.8,139.6,515.5,140.9,514.9,142.3z"/>
		<path class="st0" d="M532.8,143.8c-0.6,0.9-1.5,1.6-2.7,2.2s-2.4,0.8-3.9,0.8c-1.4,0-2.7-0.2-3.8-0.7s-2-1.1-2.7-2s-1-1.9-1-3
			c0-1.5,0.2-2.6,0.9-3.4c0.6-0.8,1.5-1.4,2.6-1.7c-0.5-0.3-0.7-0.7-0.7-1.2c0-0.4,0.2-0.7,0.5-1s0.8-0.4,1.3-0.4
			c0.2,0,0.5,0,0.6,0.1c0.2,0.1,0.4,0.2,0.6,0.4c0,0,0.1,0.1,0.3,0.2c0.2,0.1,0.3,0.1,0.4,0.1c0.1,0,0.2,0,0.2,0.1s0.1,0.2,0.1,0.3
			c0,0.2,0,0.3-0.1,0.3c-0.1,0.1-0.2,0.1-0.3,0.1s-0.3,0-0.4-0.1c-0.1-0.1-0.3-0.1-0.4-0.3c-0.2-0.1-0.3-0.2-0.5-0.3
			s-0.3-0.1-0.5-0.1s-0.4,0-0.6,0.1s-0.2,0.2-0.2,0.4s0.2,0.4,0.5,0.6c0.3,0.2,0.6,0.3,1,0.3c0.3,0,0.4,0.2,0.4,0.4
			c0,0.4-0.3,0.6-0.8,0.5c-0.1,0-0.3,0-0.6,0s-0.4,0.1-0.5,0.1c-0.8,0.3-1.5,0.8-2,1.4c-0.5,0.6-0.7,1.6-0.7,2.8
			c0,0.9,0.3,1.7,0.9,2.4c0.6,0.7,1.3,1.2,2.3,1.6c1,0.4,2,0.6,3.2,0.6s2.2-0.2,3.2-0.6c0.9-0.4,1.7-1,2.3-1.7s0.9-1.4,0.9-2.3
			c0-0.1,0-0.3,0-0.5c0-1-0.2-1.8-0.7-2.5s-1.2-1.1-2-1.3c-0.2,0-0.4-0.1-0.6-0.1c-0.2,0-0.4,0-0.5,0c-0.2,0-0.3,0-0.4-0.1
			c-0.1,0-0.1-0.1-0.2-0.3c0,0,0-0.1,0-0.2c0-0.2,0.1-0.4,0.4-0.5c0.4-0.1,0.7-0.2,0.8-0.3s0.1-0.2,0.2-0.3c0-0.1,0.1-0.2,0.1-0.3
			s0-0.2-0.1-0.4c0-0.1-0.1-0.2-0.1-0.3c0-0.3,0.2-0.5,0.5-0.6h0.1c0.3,0,0.4,0.1,0.5,0.4c0.1,0.2,0.1,0.4,0.1,0.6
			c0,0.1,0,0.2,0,0.4c-0.1,0.5-0.3,0.8-0.7,1c0.8,0,1.5,0.3,2.1,0.7c0.6,0.5,1,1,1.3,1.7s0.4,1.4,0.4,2.2
			C533.7,141.8,533.4,142.9,532.8,143.8z"/>
		<path class="st0" d="M527.7,123.8c0-0.6,0.2-0.8,0.6-0.8c0.2,0,0.3,0.1,0.4,0.2c0.1,0.1,0.1,0.3,0.1,0.5c0.2,0.1,0.4,0.2,0.6,0.2
			c0.4,0,0.8-0.1,1.3-0.3c0.5-0.2,0.8-0.3,1.1-0.3c0.5,0,1,0.2,1.3,0.6s0.6,0.9,0.6,1.6c0,1-0.3,1.8-0.9,2.4c-0.6,0.7-1.3,1-2.2,1
			c-0.7,0-1.4-0.2-2-0.7v5.9l-1.1-0.1c0-1.2,0-2.8,0-4.7v-5.5H527.7z M531.5,124.4c-0.3,0-0.6,0.1-1,0.2c-0.4,0.2-0.7,0.2-1,0.2
			s-0.5-0.1-0.8-0.2c0,0.5,0,1.3,0,2.3c0.5,0.5,1.1,0.8,1.8,0.8c0.6,0,1.1-0.2,1.4-0.6s0.5-0.9,0.5-1.5
			C532.6,124.8,532.2,124.4,531.5,124.4z"/>
		<path class="st0" d="M567.5,142.1c0,0.9-0.1,1.7-0.4,2.4s-0.7,1.2-1.3,1.6c-0.6,0.4-1.3,0.6-2,0.6s-1.4-0.2-2-0.6
			c-0.6-0.4-0.9-0.9-1-1.5c-0.1,0.6-0.4,1.1-0.9,1.5s-1.1,0.6-1.8,0.6c-0.9,0-1.7-0.4-2.5-1.2s-1.2-2.1-1.5-3.8
			c0.4-0.7,0.9-1.5,1.5-2.3s1.2-1.5,1.8-2c0.4-0.4,0.7-0.8,0.9-1s0.3-0.5,0.2-0.7c-0.1-0.8-0.6-1.2-1.5-1.2c-0.5,0-0.9,0.2-1.2,0.5
			s-0.5,0.7-0.6,1.1c0,0.3,0,0.5,0,0.6s0,0.2,0,0.3s-0.1,0.2-0.2,0.3c-0.1,0.1-0.2,0.1-0.4,0.1s-0.4-0.1-0.5-0.4
			c-0.1-0.2-0.2-0.5-0.2-0.8c0-0.1,0-0.2,0-0.4c0.2-0.8,0.5-1.3,1.1-1.7s1.2-0.6,1.9-0.6c0.8,0,1.4,0.2,1.8,0.6s0.7,0.9,0.7,1.6
			c0.6-0.5,1.4-1,2.5-1.4s2.4-0.6,4-0.6c1.7,0,3,0.5,4.2,1.3c1.1,0.8,2,1.8,2.6,3s0.8,2.5,0.8,3.7c0,1.5-0.3,2.7-1,3.5
			s-1.6,1.3-2.6,1.4c-0.2,0-0.5,0-0.8,0c-0.4,0-0.8,0-1.1-0.1s-0.5-0.2-0.8-0.3c-0.2-0.1-0.3-0.3-0.3-0.5s0.1-0.3,0.2-0.4
			c0.1-0.1,0.2-0.2,0.4-0.2c0.1,0,0.2,0,0.3,0.1c0.3,0.2,0.8,0.3,1.4,0.3c0.2,0,0.4,0,0.5,0c0.8-0.1,1.5-0.4,2-1.1s0.8-1.5,0.8-2.7
			c0-1.1-0.2-2.1-0.7-3.2c-0.5-1.1-1.2-1.9-2.3-2.6c-1-0.7-2.2-1-3.7-1c-2.2,0-4,0.6-5.5,1.7c0.7-0.1,1.2-0.2,1.6-0.2
			c0.2,0,0.4,0,0.5,0c1.4,0.2,2.5,0.8,3.4,1.7C566.9,139.1,567.4,140.4,567.5,142.1z M555.4,141.7c0,0.8,0.2,1.5,0.4,2.1
			s0.6,1,1,1.3s0.8,0.5,1.2,0.5c0.7,0,1.3-0.2,1.6-0.7s0.5-1.1,0.5-1.8c0-0.3,0-0.5,0.1-0.7s0.2-0.3,0.5-0.3c0.2,0,0.4,0.1,0.5,0.3
			s0.1,0.4,0.1,0.7c0,0.6,0.2,1.2,0.6,1.7c0.4,0.5,1,0.8,1.8,0.8c0.5,0,1-0.2,1.4-0.5s0.7-0.7,0.9-1.2s0.3-1.1,0.3-1.7
			c-0.1-1.5-0.5-2.7-1.3-3.5s-1.8-1.2-3.1-1.2c-0.7,0-1.4,0.1-2.1,0.3c-0.7,0.2-1.4,0.5-1.8,0.8c-0.4,0.3-0.8,0.8-1.3,1.4
			S555.8,141.1,555.4,141.7z"/>
		<path class="st0" d="M590.6,139.7c0,1.3-0.3,2.5-0.9,3.5s-1.5,1.9-2.6,2.6c-1.1,0.6-2.3,0.9-3.5,0.9c-1.3,0-2.5-0.3-3.6-0.9
			c-1.1-0.6-1.9-1.5-2.6-2.6c-0.6-1.1-0.9-2.3-0.9-3.5s0.2-2.3,0.5-3.2s0.9-2,1.7-3.2c0.9-1.4,2.2-3,3.7-4.8
			c1.6-1.8,3.2-3.5,5.1-5.2c0.1-0.1,0.3-0.2,0.6-0.2c0.2,0,0.3,0,0.4,0.1s0.2,0.2,0.2,0.4c0,0.2-0.1,0.4-0.3,0.6
			c-1.8,1.5-3.6,3.3-5.4,5.4c-1.8,2-3,3.6-3.8,4.8c0.6-0.5,1.3-1,2-1.3s1.5-0.5,2.3-0.5c1.3,0,2.5,0.3,3.6,0.9
			c1.1,0.6,1.9,1.5,2.5,2.6C590.3,137.2,590.6,138.4,590.6,139.7z M577.7,139.7c0,1.1,0.3,2.1,0.8,3s1.2,1.6,2.1,2.1
			c0.9,0.5,1.9,0.8,2.9,0.8c1.1,0,2.1-0.3,3-0.8s1.6-1.2,2.1-2.1c0.5-0.9,0.8-1.9,0.8-2.9c0-1.1-0.3-2-0.8-2.9s-1.2-1.6-2.1-2.2
			c-0.9-0.5-1.9-0.8-2.9-0.8c-1.1,0-2.1,0.3-2.9,0.8c-0.9,0.5-1.6,1.2-2.1,2.1C578,137.5,577.7,138.5,577.7,139.7z"/>
		<path class="st0" d="M603.2,146.1c-0.9,0.4-2,0.6-3.1,0.6c-1.6,0-3-0.6-4.1-1.7s-2-2.5-2.5-4.2c0.4,0.1,0.9,0.1,1.4,0.1
			s1-0.2,1.4-0.6c0.4-0.4,0.9-0.9,1.4-1.6c0.2-0.2,0.3-0.5,0.5-0.7c0.1-0.1,0.2-0.3,0.3-0.6c0.1-0.2,0.1-0.5,0.1-0.7s0-0.4-0.1-0.6
			c-0.3-1-0.9-1.5-1.9-1.5c-0.6,0-1,0.1-1.2,0.4c-0.3,0.3-0.4,0.6-0.4,1c0,0.1,0,0.3,0.1,0.4c0.1,0.1,0.2,0.2,0.3,0.2
			s0.2,0.1,0.3,0.2c0.1,0.1,0.1,0.2,0.1,0.3s0,0.2-0.1,0.4s-0.3,0.3-0.5,0.3c-0.3,0-0.5-0.1-0.8-0.4c-0.4-0.3-0.5-0.8-0.5-1.4
			c0-0.7,0.3-1.3,0.8-1.8s1.2-0.7,2-0.7s1.6,0.3,2.1,0.9c0.6,0.6,0.9,1.3,1.1,2.2c0.8-0.7,1.4-1.3,2-1.7c0.5-0.4,1.2-0.7,1.9-1
			c0.7-0.2,1.6-0.4,2.6-0.4c1.6,0,2.9,0.3,4,1s1.9,1.6,2.5,2.7s0.8,2.2,0.8,3.4c0,1.8-0.4,3.2-1.2,4.3s-2,1.7-3.7,1.7
			c-0.7,0-1.3-0.1-1.7-0.2c-0.5-0.1-0.9-0.4-1.4-0.7c-0.1,0-0.1-0.1-0.2-0.2c0-0.1-0.1-0.2-0.1-0.3s0-0.2,0.1-0.3
			c0.1-0.2,0.3-0.2,0.5-0.2c0.1,0,0.3,0,0.4,0.1c0.5,0.3,0.9,0.5,1.2,0.6s0.7,0.2,1.2,0.2c1.2,0,2.1-0.5,2.7-1.4s0.9-2.1,0.9-3.5
			c0-1-0.2-1.9-0.7-2.8c-0.4-0.9-1.1-1.7-2-2.2c-0.9-0.6-2.1-0.9-3.4-0.9c-1.1,0-2.1,0.2-2.9,0.6s-1.8,1.1-2.9,2.1
			c0.3-0.1,0.6-0.1,0.8-0.1c0.9,0,1.6,0.2,2.3,0.6c0.7,0.4,1.2,1,1.6,1.9c0.2,0.5,0.3,1.2,0.3,2c0,0.9-0.1,1.7-0.4,2.3
			C604.7,145,604.1,145.7,603.2,146.1z M597,144.6c0.9,0.7,1.9,1,3,1c1.4,0,2.5-0.4,3.2-1.1c0.7-0.7,1-1.6,1-2.6c0-0.3,0-0.4,0-0.6
			c-0.1-1-0.5-1.7-1.1-2.2s-1.2-0.7-1.9-0.7c-0.8,0-1.4,0.2-1.9,0.5c-0.5,0.4-1.1,0.9-1.8,1.7c-0.3,0.3-0.6,0.6-1,0.9
			c-0.4,0.3-0.7,0.4-1,0.4c-0.2,0-0.3,0-0.4,0C595.4,143.1,596.1,143.9,597,144.6z"/>
		<path class="st0" d="M607.5,123.8c0-0.6,0.2-0.8,0.6-0.8c0.2,0,0.3,0.1,0.4,0.2c0.1,0.1,0.1,0.3,0.1,0.5c0.2,0.1,0.4,0.2,0.6,0.2
			c0.4,0,0.8-0.1,1.3-0.3c0.5-0.2,0.8-0.3,1.1-0.3c0.5,0,1,0.2,1.3,0.6s0.6,0.9,0.6,1.6c0,1-0.3,1.8-0.9,2.4c-0.6,0.7-1.3,1-2.2,1
			c-0.7,0-1.4-0.2-2-0.7v5.9l-1.1-0.1c0-1.2,0-2.8,0-4.7v-5.5H607.5z M611.4,124.4c-0.3,0-0.6,0.1-1,0.2c-0.4,0.2-0.7,0.2-1,0.2
			s-0.5-0.1-0.8-0.2c0,0.5,0,1.3,0,2.3c0.5,0.5,1.1,0.8,1.8,0.8c0.6,0,1.1-0.2,1.4-0.6s0.5-0.9,0.5-1.5
			C612.4,124.8,612.1,124.4,611.4,124.4z"/>
		<path class="st0" d="M626.2,146.1c-0.9,0.4-2,0.6-3.1,0.6c-1.6,0-3-0.6-4.1-1.7s-2-2.5-2.5-4.2c0.4,0.1,0.9,0.1,1.4,0.1
			s1-0.2,1.4-0.6c0.4-0.4,0.9-0.9,1.4-1.6c0.2-0.2,0.3-0.5,0.5-0.7c0.1-0.1,0.2-0.3,0.3-0.6c0.1-0.2,0.1-0.5,0.1-0.7s0-0.4-0.1-0.6
			c-0.3-1-0.9-1.5-1.9-1.5c-0.6,0-1,0.1-1.2,0.4c-0.3,0.3-0.4,0.6-0.4,1c0,0.1,0,0.3,0.1,0.4c0.1,0.1,0.2,0.2,0.3,0.2
			s0.2,0.1,0.3,0.2c0.1,0.1,0.1,0.2,0.1,0.3s0,0.2-0.1,0.4s-0.3,0.3-0.5,0.3c-0.3,0-0.5-0.1-0.8-0.4c-0.4-0.3-0.5-0.8-0.5-1.4
			c0-0.7,0.3-1.3,0.8-1.8s1.2-0.7,2-0.7s1.6,0.3,2.1,0.9c0.6,0.6,0.9,1.3,1.1,2.2c0.8-0.7,1.4-1.3,2-1.7c0.5-0.4,1.2-0.7,1.9-1
			c0.7-0.2,1.6-0.4,2.6-0.4c1.6,0,2.9,0.3,4,1s1.9,1.6,2.5,2.7s0.8,2.2,0.8,3.4c0,1.8-0.4,3.2-1.2,4.3s-2,1.7-3.7,1.7
			c-0.7,0-1.3-0.1-1.7-0.2c-0.5-0.1-0.9-0.4-1.4-0.7c-0.1,0-0.1-0.1-0.2-0.2c0-0.1-0.1-0.2-0.1-0.3s0-0.2,0.1-0.3
			c0.1-0.2,0.3-0.2,0.5-0.2c0.1,0,0.3,0,0.4,0.1c0.5,0.3,0.9,0.5,1.2,0.6s0.7,0.2,1.2,0.2c1.2,0,2.1-0.5,2.7-1.4s0.9-2.1,0.9-3.5
			c0-1-0.2-1.9-0.7-2.8c-0.4-0.9-1.1-1.7-2-2.2c-0.9-0.6-2.1-0.9-3.4-0.9c-1.1,0-2.1,0.2-2.9,0.6s-1.8,1.1-2.9,2.1
			c0.3-0.1,0.6-0.1,0.8-0.1c0.9,0,1.6,0.2,2.3,0.6c0.7,0.4,1.2,1,1.6,1.9c0.2,0.5,0.3,1.2,0.3,2c0,0.9-0.1,1.7-0.4,2.3
			C627.8,145,627.1,145.7,626.2,146.1z M620.1,144.6c0.9,0.7,1.9,1,3,1c1.4,0,2.5-0.4,3.2-1.1c0.7-0.7,1-1.6,1-2.6
			c0-0.3,0-0.4,0-0.6c-0.1-1-0.5-1.7-1.1-2.2s-1.2-0.7-1.9-0.7c-0.8,0-1.4,0.2-1.9,0.5c-0.5,0.4-1.1,0.9-1.8,1.7
			c-0.3,0.3-0.6,0.6-1,0.9c-0.4,0.3-0.7,0.4-1,0.4c-0.2,0-0.3,0-0.4,0C618.5,143.1,619.2,143.9,620.1,144.6z"/>
	</g>
	<g>
		<path class="st0" d="M738.1,147.6c0,0-0.6-0.2-1.7-0.6c-1.1-0.4-2.1-0.9-2.9-1.5c-0.8-0.6-1.8-1.4-2.9-2.4c-0.7-0.6-1.1-1-1.2-1
			c-0.1-0.1-0.3-0.2-0.4-0.2c-0.3,0-0.5,0.1-0.6,0.4l-0.4,1.1c-0.4,1.3-0.9,2.4-1.2,3.1c-0.4,0.7-1.1,1.1-2,1.1
			c-0.7,0-1.4-0.2-2-0.6c-0.6-0.4-0.8-0.9-0.7-1.4c0.3-0.8,0.8-2.2,1.4-4.2c0.2-0.9,0.5-1.8,0.9-2.9c0.1-0.2,0.1-0.3-0.1-0.4l0,0
			c-0.1,0-0.2,0.1-0.3,0.3c-0.3,0.6-0.7,1.7-1.2,3.3c-0.6,1.9-1.2,3.5-1.7,4.8c-0.2,0.4-0.5,0.7-0.8,0.9c-0.4,0.2-0.8,0.3-1.3,0.3
			c-0.7,0-1.3-0.2-1.8-0.5s-0.8-0.8-0.8-1.2c0-0.1,0-0.2,0.1-0.4c0.5-1.3,1.3-3.9,2.4-7.6l1.2-3.7v-0.1c0-0.1-0.1-0.1-0.1-0.1
			c-0.1-0.1-0.3,0-0.3,0.2c-0.4,0.9-0.9,2.5-1.6,4.6c-0.1,0.5-0.5,1.5-1,3.1s-1,2.9-1.5,4.1c-0.2,0.5-0.5,0.9-0.8,1.2
			c-0.4,0.3-0.8,0.4-1.3,0.4c-0.6,0-1.2-0.2-1.7-0.6c-0.6-0.4-0.8-0.9-0.8-1.5c0-0.2,0-0.5,0.1-0.7c0.8-2.3,1.8-5.2,2.8-8.8
			c0.9-2.8,1.4-4.3,1.4-4.4c0.1-0.2,0-0.3-0.1-0.4l0,0c-0.1,0-0.2,0.1-0.3,0.2c-0.3,0.6-0.9,2.3-1.8,5.3c-1.4,4.3-2.5,7.4-3.2,9.1
			c-0.2,0.5-0.5,0.9-0.9,1.2s-0.8,0.4-1.3,0.4c-0.6,0-1.2-0.2-1.7-0.6c-0.5-0.4-0.8-0.9-0.8-1.4c0-0.2,0-0.5,0.1-0.7
			c0.3-0.8,0.8-2.1,1.3-3.8s0.9-3,1.2-3.8c1.2-3.8,2-6.3,2.4-7.5c0.1-0.2,0-0.4-0.1-0.4H710c-0.1,0-0.2,0.1-0.3,0.3
			c-0.3,0.8-0.9,2.7-1.9,5.8c-1.6,5.2-2.9,8.9-3.7,11c-0.2,0.5-0.5,0.8-0.8,1s-0.7,0.3-1.2,0.3c-0.6,0-1.1-0.2-1.6-0.5
			c-0.5-0.4-0.7-0.8-0.7-1.3c0-0.2,0-0.4,0.1-0.7c0.6-1.5,1.4-4.4,2.6-8.6c1.2-4.5,2.1-7.4,2.6-8.7c0.1-0.1,0-0.2-0.1-0.3
			c-0.1-0.1-0.2,0-0.3,0.2c-0.4,1.1-0.9,2.6-1.5,4.5c-0.5,1.9-0.9,3-1,3.5c-1.4,5-2.5,8.5-3.3,10.6c-0.2,0.4-0.5,0.8-1,1
			c-0.5,0.3-0.9,0.4-1.4,0.4c-0.6,0-1.1-0.2-1.6-0.5c-0.5-0.4-0.8-0.8-0.8-1.4c0-0.2,0-0.5,0.1-0.8c0.4-1,0.8-2.1,1.1-3.3
			c0.4-1.2,0.8-3,1.3-5.1c1.1-4.3,1.9-7.4,2.7-9.3c0.1-0.2,0.1-0.3,0-0.4h-0.1c-0.1,0-0.2,0.1-0.3,0.3c-0.5,1.1-0.9,2.4-1.3,3.7
			c-0.4,1.4-0.9,3.2-1.5,5.5s-1.1,4.2-1.6,5.7c-0.4,1.5-0.9,3-1.5,4.3c-0.4,0.9-1.1,1.3-2.3,1.3c-0.6,0-1.1-0.2-1.6-0.5
			s-0.7-0.8-0.7-1.3c0-0.2,0-0.5,0.1-0.8c0.4-1.2,0.8-2.6,1.2-4s0.7-3.1,1-5c0.3-1.8,0.6-3.2,0.8-4.2s0.5-1.9,0.8-2.6
			c0-0.1,0-0.2,0-0.3s-0.1-0.1-0.1-0.1c-0.2,0-0.4,0.1-0.5,0.4c-0.3,0.7-0.5,1.4-0.7,2.2s-0.4,2.1-0.7,3.7c-0.4,2.3-0.8,4.3-1.2,6
			s-1,3.4-1.8,5.1c-0.4,0.9-1.1,1.3-2.1,1.3c-0.6,0-1.1-0.2-1.6-0.5s-0.6-0.9-0.6-1.6c0-0.4,0-0.7,0.1-0.9c0.1-0.6,0.2-1.2,0.3-1.9
			s0.1-1.2,0.1-1.4c0.1-1.7,0.3-3.3,0.5-4.8s0.6-3.2,1.1-5.1c0,0,0-0.1,0.1-0.2c0-0.1,0-0.2-0.1-0.2c-0.2,0-0.3,0.1-0.4,0.3
			c-0.6,1.6-1,3.1-1.2,4.5s-0.4,3-0.5,4.8c-0.1,1.5-0.2,2.7-0.3,3.5s-0.4,1.6-0.8,2.3c-0.3,0.5-0.6,0.8-0.9,1
			c-0.3,0.2-0.7,0.3-1.3,0.3s-1.1-0.2-1.5-0.7s-0.6-1.1-0.6-1.8v-0.5c0.1-0.7,0.1-1.2,0.1-1.5v-1.8c-0.1-0.8-0.1-1.4-0.1-1.8
			c0-1.2,0.1-2.2,0.4-3.3c0-0.1,0-0.1,0-0.2s0-0.2-0.1-0.2s-0.3,0.2-0.4,0.5c-0.3,0.9-0.5,2-0.5,3.2c0,0.7,0,1.2,0,1.6v1.7
			c0,1-0.1,1.9-0.2,2.7c-0.2,1.4-0.9,2-2.1,2c-0.7,0-1.2-0.2-1.6-0.5c-0.3-0.3-0.5-0.7-0.6-1.2l-0.1-1c0-0.1,0-0.4-0.1-0.9
			c0-0.5-0.1-0.8-0.2-1.1c-0.1-0.2-0.1-0.4-0.3-0.4l0,0c-0.1,0-0.3,0.1-0.4,0.2c-0.1,0.1-0.2,0.2-0.3,0.3c-1.1,1.1-2.3,2.1-3.9,2.9
			s-3.2,1.4-5.2,1.6c-0.1,0-0.4,0-0.6,0c-1,0-1.9-0.2-2.9-0.6c-1-0.4-1.7-1-2.3-1.9c-0.6-0.8-0.9-1.8-0.9-2.9c0-0.5,0.1-1,0.2-1.4
			c0.2-1,0.7-1.7,1.5-2.1c0.7-0.4,1.4-0.6,2.1-0.6c0.6,0,1.2,0.1,1.7,0.4c0.6,0.2,0.9,0.6,1,1v0.2c0,0.4-0.1,0.6-0.3,0.8
			s-0.5,0.3-0.8,0.1c-0.1,0-0.3-0.1-0.5-0.2c-0.2-0.1-0.5-0.1-0.7-0.1c-0.6,0-1,0.2-1.3,0.5s-0.5,0.6-0.5,1c-0.1,0.6,0,1.1,0.3,1.7
			c0.3,0.6,0.8,1.1,1.5,1.4s1.5,0.6,2.5,0.6c1.3,0,2.7-0.5,4.1-1.4c1.4-0.9,2.7-1.8,3.7-2.8c0.3-0.3,0.7-0.7,1.1-1.2
			c0.4-0.4,0.7-0.8,0.9-0.9c0.2-0.2,0.4-0.3,0.6-0.3c0.8,0,1.2,0.3,1.3,1c0.1,0.4,0.1,0.7,0.2,0.9c0,0.3,0.1,0.8,0.2,1.5
			c0.1,0.8,0.2,1.5,0.3,2.3c0,0.1,0,0.1,0.1,0.2c0,0.1,0.1,0.1,0.2,0.1c0.1,0,0.2-0.1,0.2-0.3c0.1-0.9,0-1.9-0.1-3.2
			c0-0.3,0-0.7-0.1-1.2c0-0.5-0.1-1-0.1-1.5c0-0.6,0-1.3,0.1-2c0.1-0.9,0.6-1.9,1.4-2.8c0.8-0.9,1.6-1.5,2.7-1.7c0.1,0,0.3,0,0.6,0
			c0.8,0,1.2,0.5,1.2,1.4c0,0.4-0.1,1.3-0.4,2.7c-0.2,0.9-0.3,2.1-0.3,3.6v2.1c0,1.2,0,2-0.1,2.5c-0.1,0.2,0,0.3,0,0.4
			c0.1,0,0.1,0,0.2,0c0.1,0,0.1-0.1,0.2-0.1c0.2-0.5,0.3-1,0.3-1.5s0.1-1.2,0.1-2.2c0-1.6,0.1-3.2,0.3-4.7s0.7-3.3,1.5-5.4
			c0.4-0.9,0.8-1.7,1.4-2.3c0.5-0.6,1.3-1.1,2.3-1.3c0.1,0,0.2,0,0.4,0c0.9,0,1.3,0.7,1.3,2c0,0.8-0.2,1.8-0.5,2.8
			c-0.1,0.4-0.2,1-0.4,2.1c-0.1,1-0.2,1.8-0.3,2.2c-0.4,4-0.9,6.8-1.4,8.3c-0.1,0.1,0,0.2,0.1,0.3h0.1c0.1,0,0.1-0.1,0.1-0.1
			c0.3-0.7,0.5-1.5,0.7-2.5s0.5-2.4,0.8-4.1c0.4-2.5,0.8-4.5,1.2-6.1s0.8-2.9,1.4-4.2c0.8-1.8,2.1-2.9,3.7-3.2c0.1,0,0.3,0,0.5,0
			c0.5,0,0.8,0.1,1.1,0.4s0.4,0.7,0.4,1.3s-0.1,1.2-0.4,1.8c-0.5,1.4-1,3.8-1.7,7.1c-0.5,2.3-0.9,4.2-1.3,5.6
			c-0.4,1.4-0.8,2.7-1.2,3.9c-0.1,0.1,0,0.2,0.1,0.3c0.1,0,0.1,0,0.2,0c0.1-0.1,0.1-0.1,0.1-0.2c0.5-1.1,0.9-2.2,1.2-3.3
			s0.8-2.8,1.4-5.1c0.7-2.5,1.3-4.5,1.7-6c0.5-1.6,1-3.1,1.7-4.7c0.3-0.8,0.8-1.4,1.3-1.8s1.1-0.7,1.8-0.7c1.1,0,1.7,0.6,1.7,1.7
			c0,0.6-0.1,1.3-0.4,2.1c-0.4,1.2-0.8,2.5-1.2,3.8c-0.4,1.4-0.8,3.2-1.4,5.5c-0.4,1.6-0.8,3.1-1.2,4.7c-0.4,1.6-0.8,2.8-1.2,3.8
			c0,0.1,0,0.1,0,0.2s0.1,0.1,0.1,0.1l0,0c0.1,0,0.2-0.1,0.3-0.2c0.6-1.6,1.6-4.6,2.8-8.9c1.3-4.5,2.3-7.7,3.1-9.7
			c0.3-0.8,0.7-1.4,1.1-1.8c0.4-0.4,0.9-0.7,1.3-0.7c0.2,0,0.5,0.1,0.7,0.2c0.9,0.5,1.3,1.3,1.3,2.2c0,0.5-0.2,1.2-0.5,2.1
			c-0.6,1.6-1.4,4.3-2.4,8.2c-1.1,4.2-1.9,7-2.4,8.3c-0.1,0.1,0,0.2,0.1,0.2c0.1,0.1,0.3,0,0.4-0.2c0.6-1.6,1.7-4.7,3.1-9.4
			c1.3-4.1,2.1-6.6,2.4-7.6c0.3-0.8,0.7-1.4,1.1-1.8c0.5-0.4,0.9-0.6,1.4-0.6c0.4,0,0.7,0.1,0.9,0.3c0.8,0.5,1.2,1.1,1.2,2
			c0,0.4-0.1,0.9-0.3,1.5c-0.5,1.3-1.2,3.7-2.3,7.2c-0.1,0.5-0.5,1.8-1.2,3.9c-0.6,2-1.1,3.6-1.6,4.7c0,0.1,0,0.2,0.1,0.3
			c0.2,0,0.3-0.1,0.4-0.2c0.6-1.4,1.5-4.1,2.7-7.9c1.4-4.3,2.4-7,2.9-8.3c0.1-0.4,0.4-0.7,0.8-0.9c0.4-0.2,0.8-0.4,1.3-0.4
			c0.3,0,0.5,0,0.8,0.1c1,0.4,1.5,1.1,1.5,2c0,0.5-0.1,1.1-0.4,1.7c-0.4,1-1.1,3.1-2,6.3c-1.2,3.8-2,6.2-2.3,7.3
			c-0.1,0.1,0,0.3,0.1,0.3s0.1,0,0.2,0c0,0,0.1-0.1,0.1-0.2c0.6-1.4,1.4-3.5,2.3-6.6c0.2-0.6,0.6-1.6,1.1-3.1s1-2.9,1.5-4.1
			c0.2-0.6,0.8-1,1.6-1c0.3,0,0.7,0.1,1,0.2c0.9,0.5,1.4,1.2,1.4,2.1c0,0.4-0.1,0.8-0.3,1.5c-0.4,1-1,3.1-1.9,6.2
			c-0.6,2.2-1.1,3.7-1.4,4.7c-0.1,0.2,0,0.3,0.1,0.3l0,0c0.1,0,0.2-0.1,0.3-0.3c0.4-0.9,0.9-2.3,1.5-4.2c0.7-2,1.3-3.7,1.8-5
			c0.2-0.6,0.6-1.1,1-1.4c0.4-0.3,0.8-0.5,1.2-0.5c0.2,0,0.4,0,0.5,0.1c0.6,0.3,1,0.7,1.3,1.1c0.3,0.4,0.4,0.9,0.4,1.4
			c0,0.3,0,0.5-0.1,0.8l-1.1,3.4c-0.4,1.6-0.9,3-1.3,4.2c-0.1,0.2-0.1,0.4,0.1,0.4l0,0c0.1,0,0.2-0.1,0.4-0.4
			c0.3-0.6,0.6-1.6,1.1-2.9l0.8-2.1c0.2-0.4,0.4-0.8,0.7-1c0.3-0.3,0.6-0.4,1-0.4c0.3,0,0.6,0.1,0.8,0.3c0.5,0.4,1.3,1,2.3,1.9
			c1.7,1.5,3.2,2.6,4.4,3.3s2.6,1.1,4,1.1c1.2,0,2.1-0.3,2.8-0.8c0.6-0.6,1-1.3,1-2.1s-0.2-1.4-0.6-1.8c-0.4-0.3-0.8-0.5-1.3-0.5
			c-0.1,0-0.3,0-0.7,0.1c-0.3,0.1-0.6,0.1-0.7,0.1c-0.1,0-0.2,0-0.4-0.1s-0.3-0.2-0.5-0.4c-0.1-0.2-0.2-0.4-0.2-0.5
			c0-0.4,0.2-0.8,0.7-1c0.5-0.3,1-0.4,1.6-0.4c1,0,1.9,0.3,2.6,1c0.8,0.7,1.1,1.7,1.1,3.1c0,2-0.5,3.4-1.5,4.2s-2.3,1.2-4.1,1.2
			C738.8,147.6,738.1,147.6,738.1,147.6z"/>
	</g>
	<g>
		<path class="st0" d="M445.6,147.6c0,0-0.6-0.2-1.7-0.6c-1.1-0.4-2.1-0.9-2.9-1.5s-1.8-1.4-2.9-2.4c-0.7-0.6-1.1-1-1.2-1
			c-0.1-0.1-0.3-0.2-0.4-0.2c-0.3,0-0.5,0.1-0.6,0.4l-0.4,1.1c-0.4,1.3-0.9,2.4-1.2,3.1c-0.4,0.7-1.1,1.1-2,1.1
			c-0.7,0-1.4-0.2-2-0.6c-0.6-0.4-0.8-0.9-0.7-1.4c0.3-0.8,0.8-2.2,1.4-4.2c0.2-0.9,0.5-1.8,0.9-2.9c0.1-0.2,0.1-0.3-0.1-0.4l0,0
			c-0.1,0-0.2,0.1-0.3,0.3c-0.3,0.6-0.7,1.7-1.2,3.3c-0.6,1.9-1.2,3.5-1.7,4.8c-0.2,0.4-0.5,0.7-0.8,0.9c-0.4,0.2-0.8,0.3-1.3,0.3
			c-0.7,0-1.3-0.2-1.8-0.5s-0.8-0.8-0.8-1.2c0-0.1,0-0.2,0.1-0.4c0.5-1.3,1.3-3.9,2.4-7.6l1.2-3.7v-0.1c0-0.1-0.1-0.1-0.1-0.1
			c-0.1-0.1-0.3,0-0.3,0.2c-0.4,0.9-0.9,2.5-1.6,4.6c-0.1,0.5-0.5,1.5-1,3.1s-1,2.9-1.5,4.1c-0.2,0.5-0.5,0.9-0.8,1.2
			c-0.4,0.3-0.8,0.4-1.3,0.4c-0.6,0-1.2-0.2-1.7-0.6c-0.6-0.4-0.8-0.9-0.8-1.5c0-0.2,0-0.5,0.1-0.7c0.8-2.3,1.8-5.2,2.8-8.8
			c0.9-2.8,1.4-4.3,1.4-4.4c0.1-0.2,0-0.3-0.1-0.4l0,0c-0.1,0-0.2,0.1-0.3,0.2c-0.3,0.6-0.9,2.3-1.8,5.3c-1.4,4.3-2.5,7.4-3.2,9.1
			c-0.2,0.5-0.5,0.9-0.9,1.2c-0.4,0.3-0.8,0.4-1.3,0.4c-0.6,0-1.2-0.2-1.7-0.6c-0.5-0.4-0.8-0.9-0.8-1.4c0-0.2,0-0.5,0.1-0.7
			c0.3-0.8,0.8-2.1,1.3-3.8s0.9-3,1.2-3.8c1.2-3.8,2-6.3,2.4-7.5c0.1-0.2,0-0.4-0.1-0.4h-0.1c-0.1,0-0.2,0.1-0.3,0.3
			c-0.3,0.8-0.9,2.7-1.9,5.8c-1.6,5.2-2.9,8.9-3.7,11c-0.2,0.5-0.5,0.8-0.8,1s-0.7,0.3-1.2,0.3c-0.6,0-1.1-0.2-1.6-0.5
			c-0.5-0.4-0.7-0.8-0.7-1.3c0-0.2,0-0.4,0.1-0.7c0.6-1.5,1.4-4.4,2.6-8.6c1.2-4.5,2.1-7.4,2.6-8.7c0.1-0.1,0-0.2-0.1-0.3
			c-0.1-0.1-0.2,0-0.3,0.2c-0.4,1.1-0.9,2.6-1.5,4.5c-0.5,1.9-0.9,3-1,3.5c-1.4,5-2.5,8.5-3.3,10.6c-0.2,0.4-0.5,0.8-1,1
			c-0.5,0.3-0.9,0.4-1.4,0.4c-0.6,0-1.1-0.2-1.6-0.5c-0.5-0.4-0.8-0.8-0.8-1.4c0-0.2,0-0.5,0.1-0.8c0.4-1,0.8-2.1,1.1-3.3
			c0.4-1.2,0.8-3,1.3-5.1c1.1-4.3,2-7.4,2.7-9.3c0.1-0.2,0.1-0.3,0-0.4h-0.1c-0.1,0-0.2,0.1-0.3,0.3c-0.5,1.1-0.9,2.4-1.3,3.7
			c-0.4,1.4-0.9,3.2-1.5,5.5c-0.6,2.3-1.1,4.2-1.6,5.7c-0.4,1.5-0.9,3-1.5,4.3c-0.4,0.9-1.1,1.3-2.3,1.3c-0.6,0-1.1-0.2-1.6-0.5
			s-0.7-0.8-0.7-1.3c0-0.2,0-0.5,0.1-0.8c0.4-1.2,0.8-2.6,1.2-4c0.3-1.4,0.7-3.1,1-5c0.3-1.8,0.6-3.2,0.8-4.2s0.5-1.9,0.8-2.6
			c0-0.1,0-0.2,0-0.3s-0.1-0.1-0.1-0.1c-0.2,0-0.4,0.1-0.5,0.4c-0.3,0.7-0.5,1.4-0.7,2.2s-0.4,2.1-0.7,3.7c-0.4,2.3-0.8,4.3-1.2,6
			c-0.4,1.7-1,3.4-1.8,5.1c-0.4,0.9-1.1,1.3-2.1,1.3c-0.6,0-1.1-0.2-1.6-0.5c-0.4-0.4-0.6-0.9-0.6-1.6c0-0.4,0-0.7,0.1-0.9
			c0.1-0.6,0.2-1.2,0.3-1.9c0.1-0.7,0.1-1.2,0.1-1.4c0.1-1.7,0.3-3.3,0.5-4.8s0.6-3.2,1.1-5.1c0,0,0-0.1,0.1-0.2
			c0.1-0.1,0-0.2-0.1-0.2c-0.2,0-0.3,0.1-0.4,0.3c-0.6,1.6-1,3.1-1.2,4.5s-0.4,3-0.5,4.8c-0.1,1.5-0.2,2.7-0.3,3.5
			c-0.1,0.8-0.4,1.6-0.8,2.3c-0.3,0.5-0.6,0.8-0.9,1s-0.7,0.3-1.3,0.3s-1.1-0.2-1.5-0.7c-0.4-0.5-0.6-1.1-0.6-1.8v-0.5
			c0.1-0.7,0.1-1.2,0.1-1.5v-1.8c-0.1-0.8-0.1-1.4-0.1-1.8c0-1.2,0.1-2.2,0.4-3.3c0-0.1,0-0.1,0-0.2s0-0.2-0.1-0.2
			c-0.1,0-0.3,0.2-0.4,0.5c-0.3,0.9-0.5,2-0.5,3.2c0,0.7,0,1.2,0,1.6v1.7c0,1-0.1,1.9-0.2,2.7c-0.2,1.4-0.9,2-2.1,2
			c-0.7,0-1.2-0.2-1.6-0.5c-0.3-0.3-0.5-0.7-0.6-1.2l-0.1-1c0-0.1,0-0.4-0.1-0.9c-0.1-0.5-0.1-0.8-0.2-1.1c-0.1-0.2-0.1-0.4-0.3-0.4
			l0,0c-0.1,0-0.3,0.1-0.4,0.2c-0.1,0.1-0.2,0.2-0.3,0.3c-1.1,1.1-2.3,2.1-3.9,2.9c-1.6,0.8-3.2,1.4-5.2,1.6c-0.1,0-0.4,0-0.6,0
			c-1,0-1.9-0.2-2.9-0.6c-1-0.4-1.7-1-2.3-1.9c-0.6-0.8-0.9-1.8-0.9-2.9c0-0.5,0.1-1,0.2-1.4c0.2-1,0.7-1.7,1.5-2.1
			c0.7-0.4,1.4-0.6,2.1-0.6c0.6,0,1.2,0.1,1.7,0.4c0.6,0.2,0.9,0.6,1,1v0.2c0,0.4-0.1,0.6-0.3,0.8c-0.2,0.2-0.5,0.3-0.8,0.1
			c-0.1,0-0.3-0.1-0.5-0.2c-0.2-0.1-0.5-0.1-0.7-0.1c-0.6,0-1,0.2-1.3,0.5s-0.5,0.6-0.5,1c-0.1,0.6,0,1.1,0.3,1.7
			c0.3,0.6,0.8,1.1,1.5,1.4c0.7,0.4,1.5,0.6,2.5,0.6c1.3,0,2.7-0.5,4.1-1.4c1.4-0.9,2.7-1.8,3.7-2.8c0.3-0.3,0.7-0.7,1.1-1.2
			c0.4-0.4,0.7-0.8,0.9-0.9c0.2-0.2,0.4-0.3,0.6-0.3c0.8,0,1.2,0.3,1.3,1c0.1,0.4,0.1,0.7,0.2,0.9c0,0.3,0.1,0.8,0.2,1.5
			c0.1,0.8,0.2,1.5,0.3,2.3c0,0.1,0,0.1,0.1,0.2c0,0.1,0.1,0.1,0.2,0.1c0.1,0,0.2-0.1,0.2-0.3c0.1-0.9,0-1.9-0.1-3.2
			c0-0.3,0-0.7-0.1-1.2c0-0.5-0.1-1-0.1-1.5c0-0.6,0-1.3,0.1-2c0.1-0.9,0.6-1.9,1.4-2.8c0.8-0.9,1.6-1.5,2.7-1.7c0.1,0,0.3,0,0.6,0
			c0.8,0,1.2,0.5,1.2,1.4c0,0.4-0.1,1.3-0.4,2.7c-0.2,0.9-0.3,2.1-0.3,3.6v2.1c0,1.2,0,2-0.1,2.5c-0.1,0.2,0,0.3,0,0.4
			c0.1,0,0.1,0,0.2,0c0.1,0,0.1-0.1,0.2-0.1c0.2-0.5,0.3-1,0.3-1.5s0.1-1.2,0.1-2.2c0-1.6,0.1-3.2,0.3-4.7c0.2-1.5,0.7-3.3,1.5-5.4
			c0.4-0.9,0.8-1.7,1.4-2.3c0.5-0.6,1.3-1.1,2.3-1.3c0.1,0,0.2,0,0.4,0c0.9,0,1.3,0.7,1.3,2c0,0.8-0.2,1.8-0.5,2.8
			c-0.1,0.4-0.2,1-0.4,2.1c-0.1,1-0.2,1.8-0.3,2.2c-0.4,4-0.9,6.8-1.4,8.3c-0.1,0.1,0,0.2,0.1,0.3h0.1c0.1,0,0.1-0.1,0.1-0.1
			c0.3-0.7,0.5-1.5,0.7-2.5s0.5-2.4,0.8-4.1c0.4-2.5,0.8-4.5,1.2-6.1s0.8-2.9,1.4-4.2c0.8-1.8,2.1-2.9,3.7-3.2c0.1,0,0.3,0,0.5,0
			c0.5,0,0.8,0.1,1.1,0.4s0.4,0.7,0.4,1.3s-0.1,1.2-0.4,1.8c-0.5,1.4-1,3.8-1.7,7.1c-0.5,2.3-0.9,4.2-1.3,5.6
			c-0.4,1.4-0.8,2.7-1.2,3.9c-0.1,0.1,0,0.2,0.1,0.3c0.1,0,0.1,0,0.2,0c0.1-0.1,0.1-0.1,0.1-0.2c0.5-1.1,0.9-2.2,1.2-3.3
			s0.8-2.8,1.4-5.1c0.7-2.5,1.3-4.5,1.7-6c0.5-1.6,1-3.1,1.7-4.7c0.3-0.8,0.8-1.4,1.3-1.8s1.1-0.7,1.8-0.7c1.1,0,1.7,0.6,1.7,1.7
			c0,0.6-0.1,1.3-0.4,2.1c-0.4,1.2-0.8,2.5-1.2,3.8c-0.4,1.4-0.8,3.2-1.4,5.5c-0.4,1.6-0.8,3.1-1.2,4.7c-0.4,1.6-0.8,2.8-1.2,3.8
			c0,0.1,0,0.1,0,0.2c0,0.1,0.1,0.1,0.1,0.1l0,0c0.1,0,0.2-0.1,0.3-0.2c0.6-1.6,1.6-4.6,2.8-8.9c1.3-4.5,2.3-7.7,3.1-9.7
			c0.3-0.8,0.7-1.4,1.1-1.8c0.4-0.4,0.9-0.7,1.3-0.7c0.2,0,0.5,0.1,0.7,0.2c0.9,0.5,1.3,1.3,1.3,2.2c0,0.5-0.2,1.2-0.5,2.1
			c-0.6,1.6-1.4,4.3-2.4,8.2c-1.1,4.2-1.9,7-2.4,8.3c-0.1,0.1,0,0.2,0.1,0.2c0.1,0.1,0.3,0,0.4-0.2c0.6-1.6,1.7-4.7,3.1-9.4
			c1.3-4.1,2.1-6.6,2.4-7.6c0.3-0.8,0.7-1.4,1.1-1.8c0.5-0.4,0.9-0.6,1.4-0.6c0.4,0,0.7,0.1,0.9,0.3c0.8,0.5,1.2,1.1,1.2,2
			c0,0.4-0.1,0.9-0.3,1.5c-0.5,1.3-1.2,3.7-2.3,7.2c-0.1,0.5-0.5,1.8-1.2,3.9c-0.6,2-1.1,3.6-1.6,4.7c0,0.1,0,0.2,0.1,0.3
			c0.2,0,0.3-0.1,0.4-0.2c0.6-1.4,1.5-4.1,2.7-7.9c1.4-4.3,2.4-7,2.9-8.3c0.1-0.4,0.4-0.7,0.8-0.9c0.4-0.2,0.8-0.4,1.3-0.4
			c0.3,0,0.5,0,0.8,0.1c1,0.4,1.5,1.1,1.5,2c0,0.5-0.1,1.1-0.4,1.7c-0.4,1-1.1,3.1-2,6.3c-1.2,3.8-2,6.2-2.3,7.3
			c-0.1,0.1,0,0.3,0.1,0.3c0.1,0,0.1,0,0.2,0c0,0,0.1-0.1,0.1-0.2c0.6-1.4,1.4-3.5,2.3-6.6c0.2-0.6,0.6-1.6,1.1-3.1s1-2.9,1.5-4.1
			c0.2-0.6,0.8-1,1.6-1c0.3,0,0.7,0.1,1,0.2c0.9,0.5,1.4,1.2,1.4,2.1c0,0.4-0.1,0.8-0.3,1.5c-0.4,1-1,3.1-1.9,6.2
			c-0.6,2.2-1.1,3.7-1.4,4.7c-0.1,0.2,0,0.3,0.1,0.3l0,0c0.1,0,0.2-0.1,0.3-0.3c0.4-0.9,0.9-2.3,1.5-4.2c0.7-2,1.3-3.7,1.8-5
			c0.2-0.6,0.6-1.1,1-1.4c0.4-0.3,0.8-0.5,1.2-0.5c0.2,0,0.4,0,0.5,0.1c0.6,0.3,1,0.7,1.3,1.1c0.3,0.4,0.4,0.9,0.4,1.4
			c0,0.3,0,0.5-0.1,0.8L433,141c-0.4,1.6-0.9,3-1.3,4.2c-0.1,0.2-0.1,0.4,0.1,0.4l0,0c0.1,0,0.2-0.1,0.4-0.4
			c0.3-0.6,0.6-1.6,1.1-2.9l0.8-2.1c0.2-0.4,0.4-0.8,0.7-1c0.3-0.3,0.6-0.4,1-0.4c0.3,0,0.6,0.1,0.8,0.3c0.5,0.4,1.3,1,2.3,1.9
			c1.7,1.5,3.2,2.6,4.4,3.3s2.6,1.1,4,1.1c1.2,0,2.1-0.3,2.8-0.8c0.6-0.6,1-1.3,1-2.1s-0.2-1.4-0.6-1.8c-0.4-0.3-0.8-0.5-1.3-0.5
			c-0.1,0-0.3,0-0.7,0.1c-0.3,0.1-0.6,0.1-0.7,0.1c-0.1,0-0.2,0-0.4-0.1c-0.2-0.1-0.3-0.2-0.5-0.4c-0.1-0.2-0.2-0.4-0.2-0.5
			c0-0.4,0.2-0.8,0.7-1c0.5-0.3,1-0.4,1.6-0.4c1,0,1.9,0.3,2.6,1c0.8,0.7,1.1,1.7,1.1,3.1c0,2-0.5,3.4-1.5,4.2s-2.3,1.2-4.1,1.2
			C446.4,147.6,445.6,147.6,445.6,147.6z"/>
	</g>
</g>
</svg>
