<?xml version="1.0" encoding="UTF-8" standalone="no"?>
<!-- Generator: Adobe Illustrator 22.0.1, SVG Export Plug-In . SVG Version: 6.00 Build 0)  -->

<svg
   xmlns:dc="http://purl.org/dc/elements/1.1/"
   xmlns:cc="http://creativecommons.org/ns#"
   xmlns:rdf="http://www.w3.org/1999/02/22-rdf-syntax-ns#"
   xmlns:svg="http://www.w3.org/2000/svg"
   xmlns="http://www.w3.org/2000/svg"
   xmlns:sodipodi="http://sodipodi.sourceforge.net/DTD/sodipodi-0.dtd"
   xmlns:inkscape="http://www.inkscape.org/namespaces/inkscape"
   version="1.1"
   id="Layer_1"
   x="0px"
   y="0px"
   viewBox="0 0 83.9 86"
   xml:space="preserve"
   sodipodi:docname="mooniak_logo.svg"
   width="83.900002"
   height="86"
   inkscape:version="0.92.2 5c3e80d, 2017-08-06"><metadata
     id="metadata11"><rdf:RDF><cc:Work
         rdf:about=""><dc:format>image/svg+xml</dc:format><dc:type
           rdf:resource="http://purl.org/dc/dcmitype/StillImage" /><dc:title></dc:title></cc:Work></rdf:RDF></metadata><defs
     id="defs9" /><sodipodi:namedview
     pagecolor="#ffffff"
     bordercolor="#666666"
     borderopacity="1"
     objecttolerance="10"
     gridtolerance="10"
     guidetolerance="10"
     inkscape:pageopacity="0"
     inkscape:pageshadow="2"
     inkscape:window-width="1321"
     inkscape:window-height="948"
     id="namedview7"
     showgrid="false"
     inkscape:zoom="2.6516854"
     inkscape:cx="86.052172"
     inkscape:cy="44.5"
     inkscape:window-x="0"
     inkscape:window-y="0"
     inkscape:window-maximized="0"
     inkscape:current-layer="Layer_1" /><g
     id="g4"
     transform="matrix(1.3117174,0,0,1.3117174,3.5951992,12.741322)"><path
       d="m 14.1,39.4 c 0.5,0.4 0.9,0.9 1.2,1.5 0.3,0.6 0.4,1.3 0.4,2 0,1.1 -0.3,1.9 -0.8,2.5 -0.6,0.6 -1.4,0.9 -2.5,0.9 H 12 c -0.1,0.9 -0.4,1.7 -0.9,2.3 -0.5,0.6 -1.2,1.1 -2,1.4 -0.8,0.3 -1.7,0.5 -2.6,0.5 -1.4,0 -2.6,-0.3 -3.6,-0.9 -1,-0.6 -1.7,-1.4 -2.1,-2.4 -0.5,-1 -0.7,-2 -0.7,-3.1 0,-1.1 0.2,-2.1 0.5,-3 0.3,-0.8 0.7,-1.5 1.3,-1.9 0.5,-0.4 1.2,-0.7 1.9,-0.7 0.5,0 0.9,0.1 1.3,0.3 0.4,0.2 0.6,0.5 0.8,0.9 0.2,0.3 0.3,0.7 0.3,1.1 0,0.4 -0.1,0.8 -0.3,1.2 C 5.7,42.4 5.5,42.7 5.1,42.9 4.7,43.1 4.3,43.3 3.7,43.3 3.3,43.3 3,43.2 2.7,43.1 2.4,43 2.1,42.8 1.9,42.6 1.8,43 1.8,43.5 1.8,44 c 0,0.8 0.2,1.6 0.5,2.3 0.3,0.7 0.9,1.3 1.6,1.7 0.7,0.5 1.6,0.7 2.7,0.7 0.9,0 1.8,-0.2 2.5,-0.6 0.7,-0.4 1.1,-1 1.3,-1.9 h -4 c 0,-1.6 0,-2.8 0,-3.6 0,-0.8 0,-2 0,-3.6 h 1.9 c 0,1.3 0,2.2 0,2.9 0,0.6 0,1.6 0,2.9 h 1.9 v -4 c 0,-0.6 0.2,-1 0.5,-1.4 0.4,-0.3 0.8,-0.5 1.5,-0.5 0.7,-0.1 1.4,0.1 1.9,0.5 z M 11.9,10.9 c 0.4,0.4 0.7,0.9 0.7,1.5 V 18 h -1.9 v -2.5 c 0,-1.3 0,-2.1 0,-2.4 0,-0.3 -0.1,-0.5 -0.3,-0.7 -0.2,-0.1 -0.4,-0.2 -0.7,-0.2 -0.3,0 -0.6,0.1 -1,0.3 C 8.3,12.7 8,13 7.8,13.3 V 18 h -2 v -2.5 c 0,-1.3 0,-2.1 0,-2.4 0,-0.3 -0.1,-0.5 -0.3,-0.7 -0.2,-0.1 -0.4,-0.2 -0.7,-0.2 -0.3,0 -0.7,0.1 -1,0.4 -0.4,0.2 -0.6,0.5 -0.8,0.9 0,1.7 0,3.3 0,4.6 H 1 C 1,15.5 1,13 1,10.5 l 1.7,-0.1 v 1.2 C 3,11.3 3.5,11 4,10.7 c 0.5,-0.2 1.1,-0.4 1.6,-0.4 0.4,0 0.8,0.1 1.1,0.3 0.3,0.2 0.6,0.5 0.7,0.9 0.4,-0.3 0.8,-0.6 1.3,-0.8 0.5,-0.2 1,-0.3 1.5,-0.3 0.7,0 1.2,0.1 1.7,0.5 z M 8.2,22.6 c 0.7,0.5 1.3,1.1 1.6,1.9 0.4,0.8 0.5,1.7 0.5,2.6 0,0.8 -0.1,1.5 -0.4,2.3 v 6.1 H 8.2 C 8,35.2 7.8,35 7.5,34.9 7.2,34.8 6.9,34.7 6.6,34.7 6.4,34.7 6.2,34.7 6,34.8 5.8,34.9 5.6,35 5.3,35.1 5,35.3 4.7,35.4 4.5,35.5 4.3,35.6 4,35.6 3.8,35.6 3.3,35.6 2.8,35.4 2.4,35.1 2,34.8 1.7,34.4 1.6,33.9 L 2.7,33 c 0.2,0.3 0.4,0.4 0.5,0.6 0.2,0.1 0.4,0.2 0.6,0.2 0.3,0 0.6,-0.1 1.1,-0.3 0.4,-0.2 0.7,-0.3 0.9,-0.3 0.2,-0.1 0.5,-0.1 0.8,-0.1 0.3,0 0.6,0 0.9,0.1 0.3,0.1 0.5,0.2 0.7,0.3 V 31.7 C 7.5,32.2 6.6,32.4 5.6,32.4 4.8,32.4 4.1,32.2 3.4,31.9 2.7,31.6 2.2,31.1 1.7,30.5 1.3,29.9 1,29 1,28.1 c 0,-0.8 0.2,-1.5 0.6,-2 0.4,-0.5 0.9,-0.8 1.5,-0.8 0.3,0 0.5,0 0.8,0.1 0.2,0.1 0.5,0.2 0.7,0.3 0.2,0.1 0.4,0.2 0.5,0.3 0,0.1 0,0.2 -0.1,0.5 0,0.3 0,0.5 0,0.8 0,0.5 0.1,0.8 0.4,0.8 0.4,0 0.6,-0.3 0.6,-1 0,-0.5 -0.1,-1 -0.3,-1.5 l 1.5,-0.2 c 0.3,0.6 0.4,1.1 0.4,1.7 0,0.7 -0.2,1.3 -0.5,1.8 C 6.8,29.4 6.2,29.6 5.6,29.6 4.9,29.6 4.4,29.4 4.1,29 3.8,28.6 3.6,28 3.6,27.3 c 0,-0.2 0,-0.4 0,-0.7 -0.1,0 -0.2,0 -0.3,0 -0.2,0 -0.4,0.1 -0.5,0.4 -0.1,0.3 -0.2,0.6 -0.2,1 0,0.5 0.1,0.9 0.4,1.3 0.2,0.4 0.6,0.7 1,0.9 0.4,0.2 0.9,0.3 1.5,0.3 0.5,0 1,-0.1 1.5,-0.4 C 7.4,29.8 7.8,29.4 8.1,28.9 8.4,28.4 8.5,27.8 8.5,27 8.5,25.9 8.2,25 7.6,24.4 7,23.8 6.2,23.5 5.2,23.5 4.8,23.5 4.3,23.6 3.9,23.7 3.5,23.8 3,24 2.5,24.2 L 2,22.8 c 0.4,-0.2 1,-0.5 1.6,-0.6 0.6,-0.2 1.2,-0.3 1.9,-0.3 1.1,0 2,0.2 2.7,0.7 z M 2.1,41.3 c 0.1,0.1 0.3,0.2 0.6,0.3 0.2,0.1 0.4,0.1 0.6,0.1 0.6,0 0.9,-0.2 0.9,-0.7 C 4.2,40.8 4.1,40.6 4,40.5 3.9,40.4 3.7,40.3 3.4,40.3 c -0.5,0 -1,0.3 -1.3,1 z M 21.7,25.5 c 0.6,0.7 0.8,1.5 0.8,2.5 0,0.7 -0.1,1.3 -0.4,1.9 -0.3,0.6 -0.6,1 -1.1,1.4 -0.5,0.4 -1,0.6 -1.5,0.7 L 19,30.5 c 0.5,-0.1 0.9,-0.4 1.3,-0.8 0.4,-0.4 0.5,-1 0.5,-1.7 0,-0.6 -0.2,-1.1 -0.6,-1.6 -0.4,-0.4 -0.9,-0.6 -1.5,-0.6 -0.4,0 -0.8,0.1 -1.2,0.3 -0.4,0.2 -0.8,0.5 -1.2,0.9 l 0.2,0.3 c 0.6,0 1.2,0.2 1.6,0.5 0.4,0.4 0.6,0.9 0.6,1.6 0,0.5 -0.1,1 -0.4,1.4 -0.3,0.4 -0.6,0.8 -1.1,1 -0.5,0.2 -1.1,0.4 -1.8,0.4 -1.4,0 -2.5,-0.4 -3.3,-1.2 -0.8,-0.8 -1.2,-2 -1.2,-3.5 l 1.4,-0.2 c 0,0.5 0.1,0.8 0.1,1 0.3,-0.1 0.6,-0.2 1,-0.5 0.3,-0.3 0.7,-0.6 1,-0.9 -0.1,-0.4 -0.2,-0.7 -0.5,-0.8 -0.2,-0.2 -0.4,-0.3 -0.7,-0.3 -0.2,0 -0.4,0 -0.6,0.1 -0.2,0.1 -0.5,0.2 -0.8,0.4 L 11.3,25 c 0.8,-0.5 1.5,-0.8 2.1,-0.8 0.5,0 1,0.1 1.4,0.4 0.4,0.3 0.6,0.7 0.8,1.1 0,-0.1 0.1,-0.1 0.2,-0.2 -0.3,-0.6 -0.5,-1.2 -0.5,-1.7 0,-0.9 0.3,-1.6 0.9,-2.1 0.6,-0.5 1.4,-0.8 2.4,-0.8 1,0 1.9,0.3 2.5,0.8 0.6,0.5 1,1.3 1,2.2 0,0.6 -0.1,1.1 -0.4,1.6 z m -8.1,18.6 c 0.2,-0.4 0.3,-0.8 0.3,-1.4 0,-0.4 -0.1,-0.8 -0.2,-1.1 -0.1,-0.4 -0.3,-0.6 -0.5,-0.8 -0.2,-0.2 -0.4,-0.3 -0.7,-0.3 -0.4,0 -0.6,0.2 -0.6,0.7 v 3.6 h 0.4 c 0.7,-0.1 1.1,-0.3 1.3,-0.7 z m 3,-13.8 c 0.3,-0.2 0.5,-0.5 0.5,-0.9 0,-0.3 -0.1,-0.5 -0.4,-0.6 -0.2,-0.1 -0.6,-0.2 -1,-0.2 l -0.5,-0.5 c -0.8,0.8 -1.3,1.2 -1.7,1.4 0,0 -0.1,0 -0.2,0 -0.2,0 -0.3,0 -0.4,-0.1 h -0.1 c 0.2,0.3 0.5,0.6 1,0.9 0.5,0.2 1,0.4 1.6,0.4 0.5,0 0.9,-0.1 1.2,-0.4 z M 15.7,17.8 C 15.1,17.4 14.7,17 14.4,16.4 14.1,15.8 14,15.2 14,14.5 c 0,-0.8 0.2,-1.5 0.5,-2.1 0.3,-0.6 0.8,-1.1 1.3,-1.4 0.6,-0.3 1.2,-0.5 1.9,-0.5 0.8,0 1.4,0.2 2,0.5 0.6,0.3 1,0.8 1.3,1.4 0.3,0.6 0.5,1.2 0.5,2 0,0.8 -0.1,1.5 -0.4,2.1 -0.3,0.6 -0.7,1.1 -1.3,1.5 -0.5,0.4 -1.2,0.5 -1.9,0.5 C 17,18.3 16.3,18.1 15.7,17.8 Z M 19.1,16 c 0.3,-0.4 0.5,-0.9 0.5,-1.5 0,-0.5 -0.1,-0.9 -0.3,-1.2 -0.2,-0.3 -0.4,-0.6 -0.7,-0.8 -0.3,-0.2 -0.6,-0.3 -1,-0.3 -0.6,0 -1,0.2 -1.3,0.6 -0.3,0.4 -0.5,0.9 -0.5,1.6 0,0.4 0.1,0.8 0.3,1.1 0.2,0.3 0.4,0.6 0.7,0.8 0.3,0.2 0.6,0.3 1,0.3 0.6,-0.1 1,-0.3 1.3,-0.6 z m -0.2,8.2 c 0.5,0 0.9,0.1 1.4,0.2 0,-0.1 0,-0.2 0,-0.4 0,-0.5 -0.2,-0.9 -0.5,-1.1 -0.4,-0.2 -0.8,-0.4 -1.2,-0.4 -0.6,0 -1.1,0.1 -1.3,0.4 -0.3,0.3 -0.4,0.6 -0.4,1.1 0,0.2 0.1,0.5 0.2,0.7 0.5,-0.3 1.1,-0.5 1.8,-0.5 z M 27.2,36 c 0.7,0.3 1.2,0.9 1.6,1.6 0.4,0.7 0.6,1.5 0.6,2.5 v 1.1 c 0,1.3 0,2.4 0,3.2 0,0.5 0,1.2 0,2.3 h -1.7 c 0,-0.9 0,-1.8 0,-2.8 0,-1.2 0,-2.4 -0.1,-3.3 0,-1 -0.3,-1.8 -0.7,-2.4 -0.5,-0.6 -1.1,-0.9 -2.1,-0.9 -0.7,0 -1.2,0.2 -1.6,0.5 -0.4,0.3 -0.5,0.7 -0.6,1.2 h 1.7 l -0.1,1.6 H 23 v 1.2 c 0.4,-0.2 0.8,-0.3 1.3,-0.3 0.7,0 1.3,0.3 1.8,0.9 0.5,0.6 0.7,1.4 0.7,2.4 0,0.8 -0.2,1.6 -0.5,2.3 -0.3,0.7 -0.8,1.2 -1.5,1.6 -0.7,0.4 -1.5,0.6 -2.4,0.6 h -2 c -0.5,0 -0.8,0.1 -1.1,0.3 -0.3,0.2 -0.4,0.5 -0.4,0.8 L 17,50.1 c 0,-0.7 0.3,-1.3 0.8,-1.8 0.5,-0.5 1.3,-0.7 2.3,-0.7 h 1.7 c 1.1,0 1.9,-0.2 2.4,-0.7 0.5,-0.5 0.8,-1.3 0.8,-2.3 0,-0.5 -0.1,-0.9 -0.2,-1.2 -0.2,-0.3 -0.5,-0.4 -0.9,-0.4 -0.2,0 -0.3,0.1 -0.5,0.2 -0.1,0.1 -0.2,0.3 -0.3,0.5 v 3 h -1.7 v -6.1 h -2.1 c 0,1.4 0,2.4 0,3.1 0,0.7 0,1.7 0,3.1 h -1.9 c 0,-1.7 0,-3 0,-3.9 0,-0.9 0,-2.1 0,-3.9 h 4 c 0,-0.1 0,-0.2 0,-0.3 0,-0.6 0.2,-1.2 0.5,-1.6 0.3,-0.5 0.8,-0.8 1.3,-1.1 0.6,-0.3 1.2,-0.4 1.8,-0.4 0.7,-0.2 1.5,0 2.2,0.4 z M 24.4,17.8 c -0.6,-0.4 -1,-0.8 -1.3,-1.4 -0.3,-0.6 -0.4,-1.2 -0.4,-1.9 0,-0.8 0.2,-1.5 0.5,-2.1 0.3,-0.6 0.8,-1.1 1.3,-1.4 0.6,-0.3 1.2,-0.5 1.9,-0.5 0.8,0 1.4,0.2 2,0.5 0.6,0.3 1,0.8 1.3,1.4 0.3,0.6 0.5,1.2 0.5,2 0,0.8 -0.1,1.5 -0.4,2.1 -0.3,0.6 -0.7,1.1 -1.3,1.5 -0.5,0.4 -1.2,0.5 -1.9,0.5 -0.9,-0.2 -1.6,-0.4 -2.2,-0.7 z m 5.5,8.6 c 0.6,0 1.1,0.1 1.5,0.3 0.5,0.2 0.8,0.6 1.1,1 0.3,0.4 0.4,1 0.4,1.6 0,0.6 -0.1,1.1 -0.3,1.5 -0.2,0.5 -0.5,0.8 -0.9,1.1 -0.4,0.3 -0.9,0.4 -1.4,0.4 -0.5,0 -0.9,-0.1 -1.2,-0.3 -0.3,-0.2 -0.6,-0.5 -0.8,-0.8 -0.2,0.3 -0.4,0.6 -0.8,0.8 -0.3,0.2 -0.8,0.3 -1.3,0.3 -0.6,0 -1.2,-0.1 -1.6,-0.4 -0.5,-0.3 -0.8,-0.7 -1.1,-1.2 -0.3,-0.5 -0.4,-1.1 -0.4,-1.8 0,-0.7 0.1,-1.4 0.4,-1.9 0.3,-0.6 0.7,-1 1.2,-1.3 0.5,-0.3 1.1,-0.5 1.7,-0.5 0.3,0 0.6,0 0.9,0.1 l -0.2,1.6 c -0.2,0 -0.4,0 -0.4,0 -0.6,0 -1,0.2 -1.3,0.5 -0.3,0.3 -0.5,0.8 -0.5,1.3 0,0.6 0.1,1 0.4,1.3 0.3,0.3 0.7,0.5 1.2,0.5 0.4,0 0.7,-0.1 0.9,-0.4 0.2,-0.3 0.3,-0.7 0.3,-1.2 h 1.2 c 0,0.5 0.1,0.9 0.3,1.2 0.2,0.3 0.5,0.4 0.9,0.4 0.3,0 0.6,-0.1 0.8,-0.3 0.2,-0.2 0.3,-0.5 0.3,-0.8 0,-0.5 -0.2,-0.9 -0.5,-1.1 -0.3,-0.3 -0.8,-0.4 -1.5,-0.4 -0.5,0 -1,0 -1.5,0.1 0,-0.3 0,-0.6 0,-0.8 0,-1 0.2,-1.7 0.7,-2.2 0.5,-0.5 1.1,-0.7 1.9,-0.7 0.4,0 0.7,0 1,0.1 0.3,0.1 0.7,0.3 1.2,0.5 L 32,26.2 c -0.4,-0.2 -0.7,-0.3 -0.9,-0.4 -0.2,-0.1 -0.5,-0.1 -0.7,-0.1 -0.6,0 -0.9,0.2 -1,0.7 0.1,0 0.2,0 0.5,0 z M 27.8,16 c 0.3,-0.4 0.5,-0.9 0.5,-1.5 0,-0.5 -0.1,-0.9 -0.3,-1.2 -0.2,-0.3 -0.4,-0.6 -0.7,-0.8 -0.3,-0.2 -0.6,-0.3 -1,-0.3 -0.6,0 -1,0.2 -1.3,0.6 -0.3,0.4 -0.5,0.9 -0.5,1.6 0,0.4 0.1,0.8 0.3,1.1 0.2,0.3 0.4,0.6 0.7,0.8 0.3,0.2 0.6,0.3 1,0.3 0.5,-0.1 1,-0.3 1.3,-0.6 z m 13.6,23 c 0,1.4 0,2.6 0,3.7 0,1.3 0,2.6 0,3.9 h -5.7 l 0.1,-1.2 c -0.5,1 -1.4,1.5 -2.5,1.5 -0.6,0 -1.1,-0.2 -1.5,-0.5 C 31.4,46 31.2,45.5 31.2,44.9 V 39.1 L 33.1,39 v 5 c 0,0.4 0.1,0.7 0.3,1 0.2,0.2 0.4,0.3 0.7,0.3 0.3,0 0.5,-0.1 0.7,-0.2 0.2,-0.1 0.4,-0.4 0.5,-0.6 0,-0.5 0,-1.4 0,-2.4 0,-1.3 0,-2.3 0,-3 h 1.8 c 0,1.4 0,2.4 0,3.1 0,0.7 0,1.7 0,3.1 h 2.4 c 0,-0.7 0,-1.7 0,-3 0,-1.3 0,-2.4 0,-3 z M 37.7,10.9 c 0.4,0.4 0.7,0.9 0.7,1.5 V 18 h -1.9 v -2.5 c 0,-1.3 0,-2.1 0,-2.4 0,-0.3 -0.1,-0.5 -0.3,-0.7 -0.2,-0.1 -0.4,-0.2 -0.7,-0.2 -0.3,0 -0.7,0.1 -1.1,0.4 -0.4,0.2 -0.7,0.5 -0.8,0.9 0,1.7 0,3.3 0,4.6 h -1.9 c 0,-2.6 0,-5.1 0,-7.6 h 1.7 v 1.2 c 0.3,-0.4 0.7,-0.7 1.2,-0.9 0.5,-0.2 1,-0.4 1.5,-0.4 0.6,0 1.1,0.1 1.6,0.5 z m 0.2,19.8 0.3,1.4 c -0.2,0.1 -0.4,0.1 -0.7,0.2 -0.3,0 -0.5,0.1 -0.8,0.1 -1,0 -1.8,-0.3 -2.4,-0.8 -0.5,-0.5 -0.8,-1.2 -0.8,-2.1 0,-0.6 0.2,-1.2 0.5,-1.7 0.3,-0.5 0.8,-0.9 1.5,-1.1 l 0.8,-0.1 h -2.7 v -1.5 h 4.2 v 2 c -0.8,0.2 -1.5,0.4 -1.9,0.8 -0.5,0.4 -0.7,0.9 -0.7,1.4 0,0.5 0.2,0.9 0.5,1.2 0.3,0.2 0.7,0.4 1.2,0.4 0.3,0 0.6,-0.1 1,-0.2 z m 12.7,-4.2 c 0.2,0.5 0.3,1 0.3,1.6 0,1.1 -0.3,2 -0.8,2.7 -0.5,0.7 -1.2,1.2 -2,1.4 l -0.5,-1.6 c 0.6,-0.2 1,-0.5 1.3,-1 0.2,-0.4 0.4,-0.9 0.4,-1.5 0,-0.4 -0.1,-0.8 -0.3,-1.1 -0.2,-0.3 -0.5,-0.6 -0.9,-0.8 -0.4,-0.2 -0.7,-0.3 -1.2,-0.3 -0.5,0 -0.9,0.1 -1.3,0.2 -0.4,0.1 -0.9,0.4 -1.3,0.7 l 0.1,0.2 h 0.3 c 0.7,0 1.4,0.2 1.9,0.7 0.5,0.4 0.8,1 0.8,1.8 0,0.4 -0.1,0.8 -0.2,1.2 -0.2,0.4 -0.4,0.7 -0.7,1 -0.3,0.3 -0.7,0.4 -1.2,0.4 -0.4,0 -0.7,-0.1 -1,-0.2 -0.3,-0.2 -0.5,-0.4 -0.6,-0.6 -0.1,0.3 -0.4,0.5 -0.6,0.6 -0.3,0.2 -0.6,0.2 -0.9,0.2 -0.7,0 -1.2,-0.2 -1.5,-0.6 -0.3,-0.4 -0.5,-1 -0.5,-1.7 v -0.1 l -0.8,0.5 -0.9,-1.3 4,-2.7 c -0.3,-0.3 -0.6,-0.5 -0.9,-0.5 -0.2,0 -0.5,0.1 -0.7,0.2 -0.2,0.1 -0.5,0.3 -0.7,0.5 l -0.7,-1.3 c 0.4,-0.3 0.7,-0.5 1.1,-0.6 0.4,-0.2 0.8,-0.2 1.3,-0.2 0.4,0 0.8,0.1 1.2,0.3 0.3,0.2 0.6,0.5 0.7,0.9 l 0.1,-0.1 c 0.5,-0.3 1,-0.6 1.6,-0.8 0.5,-0.2 1.1,-0.3 1.7,-0.3 0.4,0 0.8,0 1.2,0.1 v -2.9 h 1.7 v 3.8 c 0,0.3 0.3,0.7 0.5,1.2 z M 40.2,9 C 40,8.8 39.9,8.5 39.9,8.2 39.9,7.9 40,7.6 40.2,7.3 40.5,7.1 40.8,7 41.1,7 c 0.3,0 0.6,0.1 0.8,0.3 0.2,0.2 0.3,0.5 0.3,0.9 0,0.3 -0.1,0.6 -0.3,0.8 -0.2,0.2 -0.5,0.3 -0.8,0.3 -0.3,0.1 -0.6,0 -0.9,-0.3 z m 0,5.2 c 0,-1.1 0,-2.1 0,-3 0,-0.1 0,-0.4 0,-0.7 l 1.9,-0.1 v 4.9 2.7 h -1.9 c 0,-1.4 0,-2.7 0,-3.8 z m 5.1,14.5 C 45,28.4 44.6,28.3 44.1,28.3 H 43.4 L 43,27.6 41.1,28.9 h 0.3 v 0.7 c 0,0.7 0.2,1 0.7,1 0.4,0 0.7,-0.5 0.7,-1.4 h 1.3 c 0,0.4 0.1,0.8 0.2,1 0.1,0.2 0.4,0.4 0.7,0.4 0.2,0 0.4,-0.1 0.5,-0.3 0.1,-0.2 0.2,-0.4 0.2,-0.8 0.1,-0.2 -0.1,-0.6 -0.4,-0.8 z m 6.6,13.5 c 0.5,0.4 0.8,1 0.8,1.9 0,1 -0.3,1.7 -0.8,2.1 -0.6,0.4 -1.2,0.6 -2,0.6 h -0.3 l -0.3,-1.2 c 1.2,-0.2 1.8,-0.7 1.8,-1.4 0,-0.3 -0.1,-0.6 -0.3,-0.7 -0.2,-0.2 -0.5,-0.3 -0.9,-0.3 h -0.5 v 0.5 c 0,0.9 -0.3,1.7 -0.8,2.3 -0.6,0.6 -1.4,0.9 -2.6,0.9 -0.7,0 -1.3,-0.1 -1.8,-0.4 -0.5,-0.3 -0.8,-0.6 -1.1,-1 -0.2,-0.4 -0.4,-0.9 -0.4,-1.3 0,-0.7 0.2,-1.2 0.5,-1.6 0.3,-0.4 0.8,-0.7 1.4,-0.8 V 39 h 6.2 v 1.5 h -1.4 v 1.1 h 0.9 c 0.5,0 1.1,0.2 1.6,0.6 z M 48.2,18.1 v -1 c -0.2,0.3 -0.5,0.6 -0.9,0.8 -0.4,0.2 -0.8,0.3 -1.3,0.3 -0.6,0 -1,-0.1 -1.4,-0.3 -0.4,-0.2 -0.6,-0.5 -0.8,-0.8 -0.2,-0.3 -0.3,-0.7 -0.3,-1 0,-0.9 0.3,-1.5 0.8,-1.9 0.6,-0.4 1.2,-0.6 1.8,-0.8 0.5,-0.1 1.1,-0.1 1.8,-0.1 v -0.1 c 0,-0.4 -0.1,-0.6 -0.3,-0.8 -0.2,-0.2 -0.5,-0.2 -0.8,-0.2 -0.3,0 -0.6,0.1 -0.9,0.2 -0.3,0.2 -0.6,0.4 -0.8,0.6 l -1,-1 c 0.3,-0.5 0.8,-0.9 1.3,-1.2 0.6,-0.3 1.2,-0.4 1.8,-0.4 0.8,0 1.5,0.2 1.9,0.6 0.5,0.4 0.7,1 0.7,1.7 v 3.8 1.6 z m -0.7,25 h -2.4 c -0.3,0 -0.6,0.1 -0.7,0.3 -0.2,0.2 -0.3,0.4 -0.3,0.7 0,0.4 0.2,0.7 0.5,0.9 0.3,0.2 0.7,0.3 1.2,0.3 0.5,0 0.9,-0.2 1.2,-0.5 0.3,-0.3 0.5,-0.8 0.5,-1.3 z m 0,-26.9 c 0.3,-0.3 0.5,-0.6 0.5,-1 v -0.6 c -0.5,0 -0.9,0.1 -1.3,0.1 -0.4,0.1 -0.8,0.2 -1,0.4 -0.2,0.2 -0.4,0.4 -0.4,0.8 0,0.2 0.1,0.4 0.3,0.5 0.2,0.1 0.4,0.2 0.7,0.2 0.5,0 0.9,-0.2 1.2,-0.4 z M 46,40.5 v 1.1 h 1.6 v -1.1 z m 1.3,-3 C 47.1,37.3 47,37 47,36.7 c 0,-0.3 0.1,-0.6 0.3,-0.9 0.2,-0.2 0.5,-0.3 0.8,-0.3 0.3,0 0.6,0.1 0.8,0.3 0.2,0.2 0.3,0.5 0.3,0.9 0,0.3 -0.1,0.6 -0.3,0.8 -0.2,0.2 -0.5,0.3 -0.8,0.3 -0.3,0 -0.6,-0.1 -0.8,-0.3 z M 59.1,18.1 h -2.4 l -2.4,-2.7 -0.5,-0.9 v 3.6 H 52 L 51.8,7.3 h 1.9 v 4.8 l 1.2,1.3 1.5,-2.9 h 2 l -2.3,4.2 z"
       id="path2"
       inkscape:connector-curvature="0" /></g><text
     xml:space="preserve"
     style="font-style:normal;font-variant:normal;font-weight:normal;font-stretch:normal;font-size:35.43051147px;line-height:1.25;font-family:'Source Sans Pro';-inkscape-font-specification:'Source Sans Pro';letter-spacing:0px;word-spacing:0px;fill:#000000;fill-opacity:1;stroke:none;stroke-width:0.88576281"
     x="4.6244793"
     y="16.683655"
     id="text820"><tspan
       sodipodi:role="line"
       id="tspan818"
       x="4.6244793"
       y="16.683655"
       style="font-style:normal;font-variant:normal;font-weight:600;font-stretch:normal;font-size:10.62915325px;font-family:'Source Sans Pro';-inkscape-font-specification:'Source Sans Pro Semi-Bold';stroke-width:0.88576281">A project by</tspan></text>
</svg>